<svg width="362px" height="97px" viewBox="0 0 362 97" version="1.1" xmlns="http://www.w3.org/2000/svg" xmlns:xlink="http://www.w3.org/1999/xlink">
    <defs>
        <linearGradient x1="49.9190141%" y1="99.806338%" x2="49.9190141%" y2="0.0352112676%" id="linearGradient-1">
            <stop stop-color="#6A2000" offset="0%"></stop>
            <stop stop-color="#FF0000" offset="100%"></stop>
        </linearGradient>
    </defs>
        <g id="LOGO">
            <path d="M24.7,2.5 L24.7,94.8 L0.1,94.8 L0.1,2.5 L24.7,2.5 Z M99.3,2.5 C104.3,2.5 108.8,3.2 112.9,4.5 C116.9,5.8 120.4,7.7 123.2,10 C126.1,12.3 128.3,15 129.8,18.1 C131.3,21.2 132.1,24.5 132.1,28 C132.1,33.4 130.7,38.1 127.9,42.1 C125.1,46.1 120.6,49.1 114.3,51.2 L114.3,51.5 C117.3,52.2 119.8,53.2 121.8,54.7 C123.8,56.1 125.4,57.8 126.7,59.7 C128,61.6 128.9,63.8 129.4,66.1 C130,68.4 130.4,70.8 130.6,73.1 C130.7,74.6 130.8,76.3 130.9,78.3 C131,80.3 131.2,82.3 131.4,84.4 C131.7,86.5 132.1,88.4 132.7,90.3 C133.3,92.2 134.1,93.7 135.3,95 L110.7,95 C109.3,92.1 108.5,88.6 108.2,84.5 C107.9,80.5 107.4,76.6 106.8,72.9 C106,68.1 104.2,64.5 101.5,62.3 C98.8,60.1 94.3,58.9 88.2,58.9 L63.6,58.9 L63.6,95 L39,95 L39,2.7 L99.3,2.7 L99.3,2.5 Z M90.5,44.3 C96.1,44.3 100.4,43.3 103.2,41.2 C106,39.1 107.4,35.8 107.4,31.1 C107.4,26.6 106,23.4 103.2,21.3 C100.4,19.3 96.1,18.3 90.5,18.3 L63.5,18.3 L63.5,44.3 L90.5,44.3 Z M144,29.9 C146.5,24 150.1,18.8 154.8,14.4 C159.5,10 165.3,6.6 172.1,4.1 C178.9,1.6 186.6,0.3 195.2,0.3 C203.9,0.3 211.6,1.6 218.4,4.1 C225.2,6.6 230.9,10 235.6,14.4 C240.3,18.8 243.9,23.9 246.4,29.9 C248.9,35.8 250.2,42.2 250.2,49.1 C250.2,55.8 248.9,62.1 246.4,67.9 C243.9,73.7 240.3,78.8 235.6,83.1 C230.9,87.4 225.1,90.8 218.4,93.2 C211.6,95.7 203.9,96.9 195.2,96.9 C186.6,96.9 178.9,95.7 172.1,93.2 C165.3,90.7 159.5,87.4 154.8,83.1 C150.1,78.8 146.5,73.7 144,67.9 C141.5,62.1 140.2,55.8 140.2,49.1 C140.2,42.2 141.5,35.8 144,29.9 Z M166.5,60.4 C167.6,64.1 169.3,67.4 171.7,70.3 C174.1,73.2 177.2,75.6 181.1,77.3 C185,79.1 189.7,79.9 195.2,79.9 C200.7,79.9 205.4,79 209.3,77.3 C213.2,75.5 216.3,73.2 218.7,70.3 C221.1,67.4 222.9,64.1 224,60.4 C225.1,56.7 225.6,53 225.6,49.1 C225.6,45.1 225.1,41.1 224,37.3 C222.9,33.5 221.2,30.1 218.7,27.2 C216.3,24.2 213.2,21.9 209.3,20.1 C205.4,18.3 200.7,17.4 195.2,17.4 C189.7,17.4 185,18.3 181.1,20.1 C177.2,21.9 174.1,24.2 171.7,27.2 C169.3,30.2 167.5,33.6 166.5,37.3 C165.4,41.1 164.9,45 164.9,49.1 C164.8,52.9 165.4,56.7 166.5,60.4 Z M362,2 L339,2 L339,64 L336.9,64 L287.9,2 L261,2 L261,94 L288,94 L288,34 L286.7,34 L335.6,94 L362,94 L362,2 Z" id="Shape" fill="#000000"></path>
            <circle id="Oval" fill="url(#linearGradient-1)" cx="195.8" cy="49.8" r="14.2"></circle>
        </g>
</svg>