<svg xmlns="http://www.w3.org/2000/svg" viewBox="0 0 356.7 348.2"><linearGradient id="a" gradientUnits="userSpaceOnUse" x1="178.731" y1="214.238" x2="178.731" y2="137.419"><stop offset="0" stop-color="#6A2000"/><stop offset="1" stop-color="#F00"/></linearGradient><circle fill="url(#a)" cx="178.7" cy="175.8" r="38.4"/><path fill="#000" d="M269.5 69.3l-1.2-1-15.5 20.4 1 .9c4.6 4.1 8.8 8.4 12.6 13.1l-21 14.4c-16.6-18.9-40.6-30.9-67.4-30.9-27.2 0-51.6 11.8-68.2 30.6l-21-13.1c21-26.1 53.1-42.9 89.2-42.9 19.1 0 38 4.8 54.7 14l1.1.6 15.6-20.5-1.5-.8c-21.3-12.3-45.5-18.8-70-18.8-77.2 0-140 62.8-140 140 0 28.1 8.4 55.3 24.2 78.6l.9 1.3L83 239l-.7-1.1c-12.2-18.6-18.7-40.3-18.7-62.6 0-18.1 4.2-35.2 11.7-50.4l20.6 12.8c-5.5 11.6-8.6 24.6-8.6 38.4 0 50 40.7 91.4 90.7 91.4 44.7 0 82-33.5 89.3-74.5h-23.2c-7 32-34 51.4-66.2 51.4-37.5 0-68-31.1-68-68.6s30.5-66.9 68-66.9c33.1 0 60.7 21.2 66.7 56.2h23c-1.4-9-4.3-18.8-8.5-27.4l20.8-14.1c8 15.8 12.4 33.5 12.4 51.6 0 63.1-51.3 114.4-114.4 114.4-29.9 0-58.1-11.5-79.6-32.4l-.9-.9-20 16.2 1.2 1.2c26.5 26.8 61.9 41.6 99.4 41.6 77.2 0 140-62.8 140-140 .1-40.7-17.6-79.3-48.5-106z"/></svg>